<svg version="1.1"
     width="80px" height="80px"
     xmlns="http://www.w3.org/2000/svg"
     style="font-size:10px;font-family:Times New Roman;" viewbox="0 0 80 80">
     
     <g style="stroke:black;stroke-width:0.3px;">
          <path d="M0 0 V80" />
          <path d="M10 0 V80" />
          <path d="M20 0 V80" />
          <path d="M30 0 V80" />
          <path d="M40 0 V80" />
          <path d="M50 0 V80" />
          <path d="M60 0 V80" />
          <path d="M70 0 V80" />
          <path d="M80 0 V80" />
     </g>
     <g style="stroke:black;stroke-width:0.3px;">
          <path d="M0 0 H80" />
          <path d="M0 10 H80" />
          <path d="M0 20 H80" />
          <path d="M0 30 H80" />
          <path d="M0 40 H80" />
          <path d="M0 50 H80" />
          <path d="M0 60 H80" />
          <path d="M0 70 H80" />
          <path d="M0 80 H80" />
     </g>

	<path d="M50 20 L70 60 L10 60 Z" fill="lightgreen" style="stroke:green;stroke-width:1px;" />

    <circle cx="50" cy="20" r="2" fill="red" />
    <circle cx="70" cy="60" r="2" fill="red" />
    <circle cx="10" cy="60" r="2" fill="red" />

    <text x="42" y="18" style="font-size:10px;">(50, 20)</text>
    <text x="46" y="52" style="font-size:10px;">(70, 60)</text>
    <text x="7" y="55" style="font-size:10px;">(10, 60)</text>
</svg>
