<svg version="1.1"
     width="80" height="80"
     xmlns="http://www.w3.org/2000/svg">
     <g style="stroke:black;stroke-width:0.3px;">
          <path d="M0 0 V80" />
          <path d="M10 0 V80" />
          <path d="M20 0 V80" />
          <path d="M30 0 V80" />
          <path d="M40 0 V80" />
          <path d="M50 0 V80" />
          <path d="M60 0 V80" />
          <path d="M70 0 V80" />
          <path d="M80 0 V80" />
     </g>
     <g style="stroke:black;stroke-width:0.3px;">
          <path d="M0 0 H80" />
          <path d="M0 10 H80" />
          <path d="M0 20 H80" />
          <path d="M0 30 H80" />
          <path d="M0 40 H80" />
          <path d="M0 50 H80" />
          <path d="M0 60 H80" />
          <path d="M0 70 H80" />
          <path d="M0 80 H80" />
     </g>

     <path d="M50 20 L70 60 L10 60 Z" fill="lightgreen" style="stroke:green;stroke-width:1px;" />

</svg>

