<?xml version="1.0" encoding="UTF-8" standalone="no"?>
<svg
   width="366.46918pt"
   height="316.52884pt"
   viewBox="0 0 366.46918 316.52883"
   version="1.1"
   id="svg59"
   sodipodi:docname="A-es_Vincent_secretaris.svg"
   xml:space="preserve"
   inkscape:version="1.2.2 (732a01da63, 2022-12-09)"
   xmlns:inkscape="http://www.inkscape.org/namespaces/inkscape"
   xmlns:sodipodi="http://sodipodi.sourceforge.net/DTD/sodipodi-0.dtd"
   xmlns="http://www.w3.org/2000/svg"
   xmlns:svg="http://www.w3.org/2000/svg"><defs
     id="defs63"><rect
       x="0.53806174"
       y="299.16232"
       width="291.56003"
       height="193.40997"
       id="rect223" /></defs><sodipodi:namedview
     id="namedview61"
     pagecolor="#ffffff"
     bordercolor="#000000"
     borderopacity="0.25"
     inkscape:showpageshadow="2"
     inkscape:pageopacity="0.0"
     inkscape:pagecheckerboard="0"
     inkscape:deskcolor="#d1d1d1"
     inkscape:document-units="pt"
     showgrid="false"
     inkscape:zoom="1"
     inkscape:cx="343.5"
     inkscape:cy="169.5"
     inkscape:window-width="1920"
     inkscape:window-height="1001"
     inkscape:window-x="-9"
     inkscape:window-y="-9"
     inkscape:window-maximized="1"
     inkscape:current-layer="layer1" /><g
     inkscape:groupmode="layer"
     id="layer1"
     inkscape:label="achtergrond"
     style="fill:#7ba95e;fill-opacity:1"><rect
       style="fill:#7ba95e;fill-opacity:1;stroke-width:1.77997"
       id="rect279"
       width="995.20941"
       height="540.49799"
       x="-257.9429"
       y="-130.5" /><path
       style="fill:#7ba95e;fill-opacity:1"
       d="m 2.5,173.5 v -174 h 243 243 v 174 174 h -243 -243 z"
       id="path2359"
       transform="scale(0.75)" /><path
       style="fill:#7ba95e;fill-opacity:1"
       d="M 417.10128,112.7629 C 414.11322,83.151115 412.5925,74.772025 409.84119,72.760214 408.89329,72.067096 405.74628,71.5 402.84783,71.5 c -4.13915,0 -5.70896,0.471258 -7.31607,2.196281 -2.73585,2.936598 -3.22619,4.826152 -9.74516,37.553719 l -5.62708,28.25 h -8.32976 c -4.58137,0 -8.33062,-0.1125 -8.33167,-0.25 -10e-4,-0.1375 -1.34759,-8.35 -2.99231,-18.25 -2.25934,-13.59948 -3.41953,-18.31569 -4.74569,-19.29129 -1.09953,-0.80888 -3.99431,-1.18247 -7.74854,-1 -7.67991,0.37327 -7.77424,0.56798 -10.72368,22.1352 L 335,139.57355 327.5,139.28677 320,139 319.27889,129.5 C 318.88228,124.275 317.87276,111 317.0355,100 316.19825,89 315.03213,63.417829 314.44412,43.15073 313.85611,22.883632 312.97738,5.2556071 312.49139,3.9773417 312.00539,2.6990763 310.57101,1.4550296 309.30388,1.2127934 308.03675,0.9705573 347.3875,0.7110822 396.75,0.6361821 L 486.5,0.5 486.4075,69.25 486.315,138 482.08595,115.5 c -4.70074,-25.009493 -10.51796,-45.176598 -14.10188,-48.888237 -1.61507,-1.672626 -3.76964,-2.52887 -7.19053,-2.857573 -6.5572,-0.630064 -10.0809,2.304247 -13.79405,11.486805 C 445.49627,78.958448 443.88761,82.9 443.42471,84 c -0.46291,1.1 -5.41434,13.7 -11.00318,28 -5.58884,14.3 -10.69192,26.5683 -11.34017,27.2629 -0.91103,0.97615 -1.81474,-5.04087 -3.98014,-26.5 z"
       id="path4624"
       transform="matrix(0.75,0,0,0.75,1.5570927,-0.75)" /></g><g
     inkscape:groupmode="layer"
     id="layer2"
     inkscape:label="voorkant"
     style="display:inline"><path
       fill-rule="evenodd"
       fill="#97001e"
       fill-opacity="1"
       d="m 0.10590267,151.02148 c 0,0.89844 0.300782,2.9375 0.601563,4.14062 0,0.53907 0.30078103,2.03907 0.60156203,2.9375 0.296875,1.14063 1.199219,3.83985 1.859375,5.28125 0,0.35938 0.238282,0.59766 0.539063,1.25782 1.261719,3.24218 3.359375,10.5625 4.859375,14.10156 0,0.35937 0.359375,0.66016 0.601562,1.26172 0.300782,1.13672 1.1992193,3.77734 1.8593753,5.27734 1.800782,3.90235 5.761719,11.58203 7.859375,15.35938 0,0.36328 0.902344,1.26172 1.199219,1.80078 1.5625,2.64062 4.203125,8.8789 6.0625,11.82031 0.597656,1.5 3,4.5 4.257813,5.94141 0,0.30078 0.601562,0.83984 1.199218,1.19922 0.300782,0.23828 1.5,1.4414 2.402344,1.73828 0.597656,0.30078 2.097656,0.30078 3,0.60156 0.660156,0 2.160156,0 3.058594,0 0.902344,-0.30078 2.699219,-0.60156 3.660156,-0.60156 0.242188,-0.29688 1.199219,-0.83985 1.800781,-1.19922 0.300782,-0.53906 0.898438,-1.73828 1.199219,-2.33985 0,-2.69921 0,-7.73828 0,-10.01953 -0.300781,-1.26172 -0.660156,-2.69922 -0.660156,-3.53906 -0.238281,-1.26172 -0.539063,-3.30078 -0.539063,-4.14062 -0.300781,-1.26172 -0.601562,-2.76172 -0.601562,-3.60157 -0.296875,-1.19922 -0.597656,-3.23828 -0.597656,-4.07812 -0.359375,-2.16016 -1.261719,-5.40235 -1.261719,-7.14063 -0.300781,-1.19922 -0.539063,-3.30078 -0.539063,-4.19922 -0.300781,-1.14062 -0.660156,-2.64062 -0.660156,-3.48046 -0.300781,-1.5 -0.539062,-4.44141 -0.539062,-5.94141 -0.359375,-1.79688 -0.660157,-5.33984 -0.660157,-7.07813 -0.601562,-3.90234 -0.902343,-11.82031 -1.199218,-15.35937 -0.300782,-2.10156 -0.601563,-5.40234 -0.601563,-7.14063 -0.300781,-3.53906 -0.300781,-10.32031 0,-13.62109 0,-4.67969 0.300781,-13.55859 0.601563,-17.75781 0,-3.78125 0.296875,-11.22266 0.597656,-14.761716 0,-3.539062 0.300781,-10.019531 0.601562,-12.960937 0,-3.238282 0.300782,-9.539063 0.660157,-12.417969 0,-1.5 -0.359375,-4.800781 0,-5.941406 0,-0.300782 0.238281,-0.601563 0.539062,-0.601563 0,0.601563 0.359375,2.101563 0.660156,3 0.238282,2.042969 0.898438,6.78125 1.199219,9.421875 0,1.140625 0.242188,3.839844 0.601563,5.339844 0.300781,3.539062 1.199218,10.621094 1.738281,14.160156 0,0.898438 0.359375,2.941406 0.660156,4.199216 0,1.37891 0.902344,4.14062 1.199219,5.87891 0,0.54296 0.363281,2.64062 0.601562,3.54296 0.660157,4.4375 2.761719,13.01954 3.660157,17.75782 0,0.60156 0.300781,2.64062 0.601562,3.54296 0.296875,2.03907 1.199219,6.53907 1.796875,8.81641 0.300781,1.86328 1.203125,5.40234 1.859375,7.14063 0,0.30078 0.242188,1.19921 0.601563,1.80078 0,0.24218 0.300781,1.74218 0.601562,2.33984 0,0.30078 0.238281,1.19922 0.597656,1.80078 0.300782,0.89844 0.542969,3.53906 1.199219,4.67969 0,0.35937 0.300781,1.19922 0.601563,1.85937 0,0.24219 0.300781,1.74219 0.601562,2.28125 0,0.35938 0.359375,1.25782 0.597656,1.80079 0.300782,0.83984 0.601563,3.59765 1.199219,4.73828 0,0.30078 0.300781,1.14062 0.660156,1.74218 0,0.29688 0.300782,1.79688 0.542969,2.39844 0,0.30078 0.359375,1.14063 0.660156,1.80078 0.296875,0.83985 0.597657,3.53907 1.199219,4.73828 0,0.24219 0.238281,1.14063 0.597656,1.74219 0,0.29688 0.300782,1.79688 0.601563,2.33985 0,0.35937 0.300781,1.19921 0.601562,1.73828 0,0.35937 0.296875,1.85937 0.660157,2.39843 0,0.36329 0.238281,1.20313 0.539062,1.80079 0,0.30078 0.359375,1.74218 0.660156,2.33984 0,0.35937 0.238282,1.26172 0.539063,1.80078 0.359375,1.19922 1.558594,3.53906 2.460937,4.74219 0,0.29687 0.597657,1.13672 1.199219,1.73828 0.898438,0.89844 3.359375,3.30078 4.859375,3.53906 2.699219,0.66016 9.0625,0 12.0625,0 0,-0.23828 0.359375,-1.14062 0.65625,-1.14062 0,-0.59766 0.902344,-1.5 1.203125,-1.73828 0.238281,-0.66016 0.898438,-1.80079 1.199219,-2.39844 0,-0.90235 0.300781,-2.64063 0.597656,-3.54297 0,-4.5 0,-13.07813 0,-17.21875 -0.296875,-7.32031 -0.597656,-21.53906 -0.597656,-28.32031 -0.300781,-3.89844 -0.601563,-11.21875 -0.601563,-14.75782 0,-0.36328 0.300782,-0.60156 0.601563,-0.60156 0,0.60156 0.300781,1.44141 0.597656,2.33985 0,0.89843 0.300781,2.9414 0.660156,4.07812 0,0.96094 0.242188,2.40234 0.542969,3.60156 0.359375,1.80078 0.660156,6.17969 1.199219,8.21875 0,0.90235 0.359375,2.40235 0.660156,3.60157 0.238281,1.80078 0.597656,6.23828 1.140625,8.28125 0,0.83984 0.359375,2.33984 0.660156,3.59765 0.296875,1.74219 0.597657,6.17969 1.199222,8.22266 0,0.89844 0.30078,2.39844 0.59765,3.59765 0.30078,1.74219 0.60156,6.17969 1.20313,8.21875 0,0.90235 0.29687,2.40235 0.66015,3.54297 0,0.95703 0.29688,3 0.53907,4.14063 0,0.59765 0.35937,2.09765 0.66015,3 0,0.29687 0.23828,1.13672 0.53906,1.73828 0,0.30078 0.35938,1.80078 0.66016,2.39844 0,0.30078 0.23828,1.14062 0.60156,1.80078 0,0.24219 0.29688,0.83984 0.59766,1.14062 0.90234,0.60157 3,2.10157 4.26172,3 0,0 0.89844,0 1.19922,0 1.19922,-0.35937 3.66015,-0.89843 4.85937,-1.26172 0.24219,-0.23828 1.44141,-1.4375 1.80078,-1.73828 0.30078,-0.89843 0.30078,-2.64062 0.60157,-3.53906 0,-5.64062 0,-16.62109 0,-21.90234 -0.30079,-9.47657 -0.96094,-27.83985 -1.20313,-36.66016 -0.29687,-2.63672 -0.66016,-7.07812 -0.66016,-9.41797 0,-0.35937 0.36329,-0.66015 0.66016,-0.66015 0,1.26171 0.24219,3.30078 0.60156,4.80078 0.60157,10.01953 2.10157,31.01953 3.0586,41.39843 0,0.90235 0,2.94141 0.54297,4.08204 0.35937,0.59765 1.55859,2.09765 2.45703,2.39843 0.90234,0.30078 3.60156,0 4.85937,0 0.24219,-0.30078 1.20313,-0.89843 1.80078,-1.19922 0,-0.60156 0.30078,-1.5 0.60156,-1.74218 0,-0.59766 0.23829,-1.79688 0.59766,-2.39844 0,-0.89844 0.30078,-2.33984 0.60156,-3 0,-0.83984 0.30078,-1.73828 0.60157,-2.28125 0,-1.79688 0.29687,-5.39844 0.66015,-7.14063 0.23828,-7.97656 1.19922,-23.9375 1.73828,-31.91796 0,-1.5 -0.30078,-4.14063 0,-5.33985 0,-0.30078 0.35938,-0.53906 0.60157,-0.53906 0,0.83984 0.29687,2.27734 0.66015,3.53906 0.29688,3.23828 0.53906,10.5586 1.19922,14.16016 0,1.4414 0.30078,4.73828 0.53906,6.48047 0.35938,5.03906 1.26172,15.96093 1.85938,21.30078 0,0.89844 0,3 0.60156,4.13672 0,0.60156 1.19922,1.74218 1.85938,2.40234 0,0.23828 0.53906,0.83984 1.19921,1.14063 2.40235,0 7.5625,0 10.26172,0 0,-0.30079 0.30078,-0.54297 0.59766,-0.54297 0.30078,-0.89844 1.5625,-2.63672 1.85937,-3.53907 0.24219,-1.19921 0.24219,-3.59765 0.60157,-4.73828 0,-3 0.30078,-8.9414 0.60156,-11.88281 0,-4.13672 0.23828,-12.41797 0.59766,-16.55859 0,-2.03907 -0.35938,-5.94141 0,-7.67969 0,-0.30078 0.30078,-0.53906 0.60156,-0.53906 0,2.27734 0.30078,6.77734 0.59765,9.41797 0,4.14062 0.30079,13.32031 0.66016,17.76171 0,2.64063 0.24219,7.98047 0.54297,10.6211 0,0.89844 0.35937,2.63672 0.59766,3.59765 0,0.53907 0.30078,2.03907 0.60156,2.94141 0,0.23828 0.35937,1.5 0.59765,1.73828 0.66016,0.60156 2.46094,2.10156 3.66016,2.40235 1.5,0.23828 5.46094,0.23828 7.26172,0 0.60156,-0.30079 2.10156,-1.5 3,-1.80079 0.35937,-0.30078 0.96094,-0.83984 1.19922,-1.19921 0.35937,-1.14063 0.96094,-3.17969 1.26172,-4.08204 0,-2.09765 0.30078,-6.53906 0.59765,-8.28125 0,-2.09765 0.30078,-5.9375 0.60157,-7.67968 0,-2.16016 0.30078,-6.53907 0.66015,-8.33985 0,-2.09765 0.23828,-5.8789 0.53906,-7.67968 0,-2.09766 0.30079,-6.53907 0.66016,-8.27735 0,-2.04297 0.24219,-5.9414 0.53906,-7.67969 0,-2.04296 0.36328,-6.54296 0.66016,-8.28124 0,-2.03907 0.24219,-5.94141 0.60156,-7.67969 0,-2.03906 0.30078,-6.48047 0.60156,-8.33985 0,-2.04296 0.23829,-5.88281 0.59766,-7.67968 0,-2.042968 0.30078,-6.179687 0.60156,-8.222656 0,-0.898437 -0.30078,-3 0,-3.597656 0,-0.300781 0.30078,-0.542969 0.59766,-0.542969 0,0.242188 0.30078,1.140625 0.60156,1.742188 0.96094,5.941406 3.0586,18.660153 4.25781,24.839843 0,0.60156 0.30079,2.10156 0.60157,3 0.89843,5.03906 2.39843,15.89843 3.60156,21.30078 0,0.53906 0.35937,2.03906 0.66016,2.8789 0.89843,5.94141 3,18.66016 4.19921,24.83985 0,1.19922 0.59766,3.60156 1.19922,4.74218 0,0.29688 0.35938,1.19922 0.60157,1.79688 0,0.24219 0.29687,1.74219 0.66015,2.40234 0,0.23828 0.29688,1.14063 0.53906,1.73828 0.35938,0.90235 0.66016,3.53907 1.19922,4.74219 0,0.29688 0.35938,1.19922 0.66016,1.79688 0,0.24218 0.30078,1.74218 0.60156,2.28125 0,0.35937 0.29688,1.26172 0.59766,1.85937 0,0.24219 0.30078,1.74219 0.60156,2.33985 0,0.30078 0.30078,1.19921 0.66016,1.74218 0.23828,1.19922 1.4375,3.59766 2.39843,4.73828 0,0.30079 1.19922,0.30079 1.80079,0.60157 1.80078,0 5.76171,0.30078 7.85937,0 0.60156,-0.30078 2.76172,-2.33985 3.05859,-2.94141 0.24219,-2.94141 0,-8.57812 0,-11.21875 -0.65625,-10.37891 -2.15625,-30.24219 -2.45703,-40.19922 -0.30078,-5.04297 -0.30078,-15.42187 0,-20.16015 0,-4.38282 0.30078,-12.72266 0.59766,-16.5625 0,-1.4375 0.30078,-3.83985 0.66016,-4.67969 0,-1.25781 0.24218,-3.300778 0.54296,-4.199216 0,-1.199219 0.35938,-3.839844 0.65625,-4.738281 0,-2.28125 0.90235,-6.183594 1.20313,-8.222656 0,-1.199219 0.23828,-3.898438 0.59766,-4.738282 0,-1.199218 0.30078,-3.300781 0.60156,-4.140625 0,-1.199218 0.30078,-3.539062 0.59765,-4.800781 0,-0.539062 -0.29687,-1.4375 0,-1.738281 0,-0.300781 0.30079,-0.542969 0.60157,-0.542969 0,1.742188 0.30078,5.582031 0.60156,7.683594 0.35937,10.316406 1.19922,31.859367 1.79687,42.539057 0,2.03906 0.30079,6.17969 0.66016,8.27735 0,0.60156 0.30078,2.10156 0.54297,2.9414 0,0.60156 0.35937,1.5 0.66016,2.40234 0.29687,2.03907 1.19921,6.53907 1.79687,8.81641 0,0.60156 0.30078,1.5 0.60156,2.40234 0.30078,1.19922 0.60157,4.5 1.26172,5.9375 0,0.60157 0.23828,1.44141 0.53906,2.34375 0.66016,2.63672 1.85938,8.57813 2.46094,11.81641 0,0.66016 0.29688,2.70313 0.59766,3.54297 0.30078,2.09766 1.14062,6.53906 1.80078,8.9375 0,0.54297 0.30078,1.74219 0.60156,2.28125 0.59766,1.5 1.85938,4.5 3.0586,5.94141 0.30078,0.35937 2.10156,0.89843 3,1.19921 0.60156,0 2.10156,0 3.05859,0 0.60156,-0.30078 2.10156,-0.60156 3,-0.60156 0.30078,-0.23828 0.90234,-0.59765 1.20312,-0.59765 0.35938,-0.30079 0.89844,-0.90235 1.19922,-1.14063 0.35938,-0.66016 0.89844,-1.5 1.25782,-1.80078 0.30078,-1.14063 0.90234,-3.53906 1.19921,-4.73828 0,-1.14063 0.30079,-3.54297 0.60157,-4.6836 0.30078,-3 0.83984,-8.9375 1.19922,-11.8789 0,-1.73828 0.30078,-4.98047 0.60156,-6.48047 0,-3.29688 0.89844,-8.87891 1.25781,-11.87891 0,-1.73828 0.24219,-4.98047 0.54297,-6.41797 0,-3.30078 0.89844,-8.9414 1.19922,-11.88281 0,-0.83984 -0.30078,-2.33984 0,-2.9375 0,-0.30078 0.35937,-0.60156 0.66015,-0.60156 0,0.60156 0.23829,2.10156 0.59766,2.94141 0,1.19922 0.30078,3.83984 0.54297,5.33984 0,1.19922 0.35937,3.23828 0.66016,4.73828 0.29687,2.40234 0.59765,7.98047 1.19921,10.62109 0,1.19922 0.30079,3.23829 0.59766,4.73829 0.30078,2.40234 0.60156,7.98046 1.20313,10.62109 0,1.19922 0.29687,3.23828 0.66015,4.73828 0,1.20313 0.29688,3.90234 0.53906,5.33984 0,0.90235 0.35938,2.64063 0.66016,3.54297 0,0.59766 0.30078,1.80078 0.53906,2.33985 0,0.35937 0.35938,1.25781 0.66016,1.80078 0,0.29687 0.60156,1.19922 1.19922,1.73828 0.30078,0.35937 1.26172,0.89844 1.80078,1.26172 1.19922,0.23828 3.96094,0.23828 5.46094,0.59765 0.96093,0 3.05859,0.24219 4.25781,0 0.60156,-0.35937 1.80078,-1.85937 2.40234,-2.39843 0,-0.60157 0.30078,-1.5 0.59766,-1.74219 0,-0.89844 0.30078,-2.39844 0.66016,-3 0,-0.89844 0.24218,-1.79688 0.54296,-2.39844 0,-0.83984 0.35938,-2.28125 0.65625,-2.9414 0,-0.83985 0.24219,-2.9375 0.54297,-3.48047 0,-0.89844 0.35938,-2.39844 0.59766,-3 0,-0.89844 0.30078,-2.9375 0.66016,-3.53907 0,-0.89843 0.30078,-2.39843 0.54296,-2.9375 0,-0.96093 0.35938,-3 0.65625,-3.60156 0,-1.74219 0.90235,-4.4414 1.20313,-5.9414 0,-0.83985 0.29687,-2.87891 0.59766,-3.53907 0,-0.83984 0.30078,-2.33984 0.60156,-2.8789 0,-0.90235 0.35937,-3 0.59765,-3.53907 0,-0.96093 0.30079,-2.40234 0.66016,-3 0,-0.90234 0.30078,-2.9414 0.54297,-3.54296 0,-0.89844 0.35937,-2.39844 0.66016,-3 0,-0.89844 0.23828,-2.9375 0.53906,-3.53907 0,-0.89843 0.35937,-2.33984 0.66015,-2.9414 0,-0.83985 0.23829,-2.9375 0.59766,-3.59766 0,-1.74219 0.90234,-4.3789 1.20313,-5.82031 0,-0.96094 0.29687,-3 0.66015,-3.60156 0,-0.89844 0.23828,-2.33985 0.53906,-2.9375 0,-0.90235 0.30079,-2.64063 0.66016,-3.54297 0,-0.296876 -0.35937,-1.199217 0,-1.199217 0,-0.300781 0.23828,-0.539063 0.53906,-0.539063 0,0.539063 0.35938,1.441404 0.60157,2.28125 0.66015,3.89843 1.55859,12.48047 2.39843,16.61718 0,0.83985 0.35938,2.33985 0.66016,3.54297 0.30078,2.9375 1.19922,9.17969 1.80078,12.41797 0,0.53906 0.30078,2.03906 0.66016,2.94141 0.53906,1.5 2.09765,4.4375 3,5.8789 2.09765,0 6.35937,0.35938 8.46093,0 0.35938,-0.23828 0.89844,-1.4414 1.19922,-1.73828 0,-0.60156 0.35938,-1.5 0.59766,-1.80078 0,-0.60156 0.30078,-2.03906 0.66016,-2.33984 0,-0.53907 0.24218,-1.5 0.54296,-1.80078 0,-0.60157 0.35938,-2.03907 0.65625,-2.33985 0,-0.53906 0.24219,-1.4414 0.54297,-1.80078 0,-0.53906 0.35938,-2.03906 0.66016,-2.33984 0,-0.60156 0.23828,-1.44141 0.59766,-1.80078 0,-0.53907 0.30078,-2.03907 0.60156,-2.33985 0,-0.59765 0.30078,-1.4375 0.59765,-1.80078 0,-0.53906 0.30079,-2.03906 0.66016,-2.33984 0,-0.59766 0.24219,-1.5 0.54297,-1.73828 0,-0.60157 0.29687,-2.10157 0.59766,-2.39844 0,-0.60156 0.30078,-1.5 0.60156,-1.74219 0,-0.59765 0.35937,-2.09765 0.59765,-2.39844 0,-0.60156 0.30079,-1.5 0.66016,-1.74218 0,-0.66016 0.30078,-2.09766 0.54297,-2.39844 0,-0.60156 0.35937,-1.5 0.66016,-1.74219 0,-0.66015 0.29687,-0.89844 0.53906,-1.19922 0.35937,-0.96093 0.66015,-3 1.25781,-3.59765 0,-0.54297 0.30078,-0.839846 0.60156,-1.140625 0,-0.601562 0.35938,-1.5 0.60157,-1.800781 0,-0.601562 0.29687,-0.839844 0.66015,-1.199219 0.23828,-0.902343 0.53906,-2.941406 1.19922,-3.539062 0,-0.542969 0.23828,-0.902344 0.53906,-1.140625 0,-0.601563 0.35938,-1.5 0.66016,-1.800781 0,-0.601563 0.23828,-0.839844 0.60156,-1.199219 0,-0.542969 0.29688,-1.441406 0.59766,-1.742188 0,-0.597656 0.30078,-0.898437 0.60156,-1.199218 0.30078,-0.839844 0.59766,-3 1.19922,-3.539063 0,-0.601562 0.30078,-0.839844 0.60156,-1.199219 0,-0.542968 0.29688,-1.441406 0.59766,-1.800781 0,-0.539062 0.35937,-0.839844 0.60156,-1.140625 0.30078,-0.898437 0.66016,-3 1.19922,-3.539062 0,-0.902344 0.96094,-1.742188 1.19922,-2.339844 0,0.238281 0.35937,1.140625 0.66015,1.738281 0,0.601563 0.30079,2.640625 0.60157,3.539063 0,1.5 0.96093,4.140625 1.19922,5.941406 0,0.601562 0.30078,2.640625 0.60156,3.539062 0,0.601563 0.29687,2.101563 0.59765,2.941407 0,0.660156 0.30079,2.699218 0.66016,3.539062 0,1.5 0.90234,4.140625 1.19922,5.941406 0,0.597655 0.24219,2.398435 0.60156,3.539055 0,1.19922 0.30078,3.83985 0.60156,5.28125 0,1.85938 0.23829,5.64063 0.59766,7.67969 0,1.85938 0.30078,5.03906 0.60156,7.14063 0,1.79687 0.30078,5.57812 0.59766,7.67968 0,1.5 0.30078,4.4375 0.60156,5.9375 0,0.30078 0.30078,1.5 0.60156,1.74219 0.59766,0.66016 2.09766,1.5 3,1.80078 0.65625,0 2.15625,0 3.0586,0 0.89844,-0.30078 2.69922,-0.30078 3.66015,-0.60156 0.23829,-0.30078 1.19922,-1.44141 1.80079,-1.80078 0,-0.53906 0.29687,-1.73828 0.66015,-2.27735 0,-4.14062 0,-12.18359 0,-16.02343 -0.36328,-4.4375 -0.36328,-12.71875 -0.66015,-16.5586 -0.30079,-2.03906 -0.90235,-5.578117 -1.20313,-7.078117 -0.35937,-0.902344 -0.59766,-2.402344 -0.59766,-3 -0.66015,-2.640625 -1.5,-8.222656 -1.85937,-10.621094 -0.30078,-0.839844 -0.54297,-2.339844 -0.54297,-3 -0.66016,-1.742187 -0.95703,-5.582031 -1.25781,-7.019531 -0.30078,-0.902344 -0.60156,-2.101563 -0.60156,-2.402344 -0.30079,-0.597656 -0.59766,-1.5 -0.59766,-1.796875 -0.30078,-0.601562 -0.60156,-2.042969 -0.60156,-2.34375 -0.30078,-1.136719 -1.25782,-2.636719 -1.25782,-3.539062 -0.24218,-0.597657 -0.54296,-2.039063 -0.54296,-2.398438 -0.35938,-1.140625 -1.25782,-2.640625 -1.25782,-3.539062 -0.30078,-0.601563 -0.60156,-2.042969 -0.60156,-2.339844 -0.23828,-0.601563 -0.59766,-1.441406 -0.59766,-1.800781 -0.30078,-0.601563 -0.60156,-1.140625 -0.60156,-1.140625 -0.60156,-0.898438 -1.80078,-2.101563 -2.39844,-2.398438 -0.60156,-0.601562 -1.86328,-1.140625 -2.40234,-1.140625 -1.25781,-0.359375 -3.96094,-0.359375 -4.85937,0 -0.89844,0 -2.46094,1.140625 -3.0586,1.738281 -0.30078,0 -0.60156,0.300782 -0.60156,0.601563 -0.60156,0.300781 -1.19922,1.199219 -1.19922,1.738281 -0.60156,0.601563 -1.5625,2.402344 -1.80078,3.601563 -0.66016,0.539062 -0.96094,2.640625 -1.19922,3.539062 -0.35937,0.238281 -0.66016,0.601563 -0.66016,1.140625 -0.30078,0.359375 -0.53906,1.257813 -0.53906,1.800781 -0.36328,0.296875 -0.66015,0.597657 -0.66015,1.199219 -0.60157,0.539063 -0.90235,2.640625 -1.20313,3.539063 -0.29687,0.300781 -0.59766,0.601562 -0.59766,1.140625 -0.30078,0.359375 -0.66015,1.257812 -0.66015,1.800781 -0.24219,0.300781 -0.53906,0.597656 -0.53906,1.199219 -0.66016,0.539062 -0.90235,2.640625 -1.20313,3.539062 -0.35937,0.300781 -0.66016,0.601563 -0.66016,1.140625 -0.23828,0.359375 -0.59765,1.261719 -0.59765,1.800781 -0.30078,0.300782 -0.60156,0.597657 -0.60156,1.199219 -0.59766,0.601563 -0.89844,2.640625 -1.14063,3.539063 -0.35937,0.300781 -0.66016,0.601562 -0.66016,1.140625 -0.29687,0.359375 -0.59765,1.261718 -0.59765,1.859375 -0.30078,0.300781 -0.60156,0.539062 -0.60156,1.140625 -0.59766,0.601562 -0.89844,2.640625 -1.25782,3.539062 -0.30078,0.300781 -0.54297,0.601563 -0.54297,1.261719 -0.29687,0.238281 -0.65625,1.140625 -0.65625,1.738281 -0.30078,0.300781 -0.54296,0.542969 -0.54296,1.140625 -0.66016,0.601563 -0.89844,2.699219 -1.25782,3.539063 -0.30078,0.363281 -0.60156,0.601562 -0.60156,1.261718 -0.23828,0.238282 -0.59766,1.140625 -0.59766,1.73828 -0.30078,0.30078 -0.60156,0.54297 -0.60156,1.14062 -0.60156,0.66016 -0.89844,2.69922 -1.26172,3.53907 -0.23828,0.66015 -0.89843,1.80078 -1.19922,2.40234 -0.23828,-0.90234 -0.53906,-2.40234 -0.53906,-2.94141 -0.66015,-4.437496 -1.55859,-13.558587 -1.80078,-17.757806 -0.35937,-1.441406 -0.66016,-4.140625 -0.66016,-5.339844 -0.59765,-4.441406 -1.5,-13.621093 -1.80078,-17.761718 -0.29687,-1.140625 -0.59765,-2.941407 -0.59765,-3.539063 -0.35938,-0.902344 -0.60157,-2.039062 -0.60157,-2.339844 -0.30078,-0.601562 -0.66015,-1.441406 -0.66015,-1.800781 -0.30078,-0.539062 -0.53906,-1.140625 -0.53906,-1.140625 -0.66016,-0.597656 -1.5586,-1.199219 -1.85938,-1.199219 -1.80078,-0.300781 -5.76172,-0.300781 -7.19922,0 -0.66015,0 -1.5625,0.601563 -1.86328,1.199219 -0.59766,0.601563 -1.55859,2.039063 -1.79687,2.941406 -0.30079,0.300782 -0.66016,1.199219 -0.66016,1.800782 -2.10156,8.578125 -5.76172,26.339843 -7.20313,35.457031 -0.29687,0.601562 -0.65625,2.703125 -0.65625,3.601562 -2.10156,9.41797 -6.0625,28.62109 -7.86328,38.39843 -0.29687,0 0,0.90235 0,1.14063 -0.29687,0 -0.59765,0.35937 -0.59765,0.60156 -0.30078,-0.60156 -0.60157,-1.74219 -0.60157,-2.33984 -0.66015,-2.64063 -1.55859,-7.98047 -1.85937,-10.6211 -0.23828,-1.19921 -0.53906,-3.23828 -0.53906,-4.14062 -0.35938,-2.09766 -1.26172,-5.39844 -1.26172,-7.14063 -0.30078,-1.13671 -0.53906,-3.17968 -0.53906,-4.07812 -0.66016,-3 -1.5586,-8.03906 -1.85938,-10.679685 -0.30078,-1.140625 -0.60156,-3.242187 -0.60156,-4.140625 -0.59766,-3.839843 -1.85938,-10.980468 -2.39844,-14.21875 -0.30078,-0.902343 -0.66016,-2.339843 -0.66016,-2.941406 -0.24218,-0.601562 -0.53906,-1.5 -0.53906,-1.738281 -0.66015,-0.601563 -1.5625,-1.261719 -1.86328,-1.261719 -2.09766,-0.238281 -6,-0.238281 -7.85937,0 -0.59766,0 -1.19922,0.359375 -1.19922,0.660156 -0.30078,0 -0.60157,0.601563 -0.60157,1.140625 -0.29687,0.300782 -0.65625,1.199219 -0.65625,1.800782 -0.24218,0.539062 -0.54296,2.039062 -0.54296,2.9375 -0.35938,0.902343 -0.66016,3.539062 -0.66016,4.742187 -0.23828,0.898438 -0.59766,2.9375 -0.59766,4.199219 -0.30078,0.839844 -0.60156,3.480469 -0.60156,4.679687 -0.23828,0.898438 -0.59766,3 -0.59766,4.140625 -0.30078,0.898435 -0.60156,3.539055 -0.60156,4.738275 -0.30078,0.90235 -0.60156,2.94141 -0.60156,4.08203 -0.66016,2.09766 -0.89844,7.14063 -1.19922,9.53907 -0.35937,0.89843 -0.59766,2.9414 -0.59766,4.07812 -0.30078,0.96094 -0.60156,3.60156 -0.60156,4.74219 -0.35937,0.89844 -0.60156,3 -0.60156,4.14062 -0.29688,0.89844 -0.66016,3.53907 -0.66016,4.80078 -0.29687,0.83985 -0.53906,2.87891 -0.53906,4.07813 -0.35937,0.89844 -0.66016,3.23828 -0.66016,4.73828 -0.30078,0.30078 0,1.14063 0,1.80078 -0.30078,0 -0.59765,0.24219 -0.59765,0.60156 -0.30078,-0.60156 -0.60156,-1.80078 -0.60156,-2.40234 -0.89844,-4.73828 -1.80079,-14.45703 -2.46094,-18.89844 -0.23828,-1.19921 -0.53906,-3.23828 -0.53906,-4.14062 -0.66016,-3.53906 -1.5586,-10.67969 -1.85938,-14.21875 -0.24219,-1.5 -0.60156,-4.44141 -0.60156,-5.94141 -0.59766,-4.140618 -0.89844,-12.718743 -1.19922,-16.499993 -0.30078,-2.097657 -0.66016,-5.9375 -0.66016,-7.738282 -0.53906,-4.082031 -1.14062,-12.359375 -1.14062,-16.5625 -0.30078,-4.136718 -0.59766,-12.058593 -0.59766,-15.957031 -0.36328,-6.179687 -0.60156,-18.359375 -0.60156,-24.179687 -0.30078,-4.203125 -0.66016,-11.8828128 -0.66016,-15.4804688 -0.30078,-0.839844 -0.30078,-2.28125 -0.53906,-2.882813 -0.35937,-0.6601559 -1.5625,-1.25781195 -1.85937,-1.25781195 -1.20313,-0.539063 -3.30079,-0.539063 -4.20313,-0.539063 -0.89844,-0.242187 -2.45703,-0.242187 -3.05859,0 -0.89844,0 -2.16016,1.13671905 -2.39844,1.79687495 -0.30078,0.242188 -0.60156,1.140625 -0.60156,1.742188 -0.35938,0.597656 -0.60157,2.039062 -0.60157,2.941406 -0.65625,2.339844 -1.55859,7.7382808 -1.85937,10.6796878 -0.29688,0.839843 -0.59766,3 -0.59766,4.136718 -0.30078,1.742188 -1.19922,5.042969 -1.19922,7.082032 -0.30078,0.839843 -0.60156,3 -0.60156,4.140625 -0.30078,1.738281 -1.26172,5.039062 -1.26172,7.140625 -0.23828,0.898437 -0.53906,2.9375 -0.53906,4.078125 -0.35937,1.742187 -1.19922,5.039062 -1.19922,7.140625 -0.35937,0.898437 -0.66015,2.941406 -0.66015,4.140625 -1.19922,6.777343 -3,20.9375 -3.60157,28.378906 -0.29687,1.738281 -0.59765,5.878906 -0.59765,8.28125 -0.60157,9.179682 -1.5625,27.777342 -1.80078,37.257812 -0.35938,1.14062 0,4.4414 0,5.9414 -0.35938,0 -0.66016,0.23828 -0.66016,0.60156 -0.30078,-0.60156 -0.53906,-1.5 -0.53906,-1.86328 -0.35938,-0.89843 -0.66016,-2.9375 -0.66016,-3.53906 -0.30078,-1.73828 -1.19922,-4.3789 -1.19922,-5.8789 -0.30078,-0.90235 -0.60156,-2.94141 -0.60156,-3.53907 -0.30078,-1.80078 -1.19922,-4.4414 -1.19922,-5.9414 -0.30078,-0.89844 -0.66016,-2.94141 -0.66016,-3.53907 -0.24218,-0.90234 -0.53906,-2.40234 -0.53906,-3 -0.36328,-0.83984 -0.66015,-2.88281 -0.66015,-3.54296 -0.24219,-1.73829 -1.20313,-4.37891 -1.20313,-5.878907 -0.29687,-0.898438 -0.59766,-2.9375 -0.59766,-3.539063 -0.30078,-1.800781 -1.19921,-4.441406 -1.19921,-5.941406 -0.60157,-1.738281 -1.20313,-5.277344 -1.20313,-7.078125 -0.89844,-4.140625 -1.79687,-12.71875 -2.45703,-16.5625 -0.30078,-1.136719 -0.54297,-2.636719 -0.54297,-3.539062 -0.95703,-4.140625 -2.16016,-12.417969 -2.45703,-16.617188 -0.30078,-2.042969 -0.60156,-5.820312 -0.60156,-7.683594 -0.30078,-2.878906 -0.60157,-9.117187 -0.60157,-11.816406 -0.29687,-1.742187 -0.65625,-4.980469 -0.65625,-6.480469 -0.24218,-0.839843 -0.54296,-2.101562 -0.54296,-2.339843 -0.35938,-0.601563 -0.89844,-1.5 -1.25782,-1.800782 -0.60156,-0.601562 -1.5,-1.140625 -1.80078,-1.140625 -1.80078,-0.601562 -5.76172,-1.5 -7.26172,-1.199218 -0.59765,0 -1.5,1.199218 -1.85937,1.738281 -0.23828,0.359375 -0.53906,1.199219 -0.53906,1.800781 -0.30079,0.601563 -0.66016,2.101563 -0.66016,2.941406 -0.23828,1.5 -0.53906,5.039063 -0.53906,7.078125 -0.35938,2.640625 -0.66016,8.941407 -0.66016,11.820313 -0.24219,2.699219 -0.60156,8.339844 -0.60156,11.28125 -0.30078,2.699219 -0.59766,8.878906 -0.59766,11.820312 -0.30078,2.636719 -0.60156,8.277344 -0.60156,11.277344 -0.30078,2.640625 -0.53906,8.820313 -0.53906,11.820313 -0.35938,2.640625 -0.66016,8.222656 -0.66016,11.222656 -0.30078,2.636719 -0.60156,8.578117 -0.60156,11.816407 -0.30078,1.14062 0,3.84375 0,5.34375 -0.30078,0 -0.59766,0.23828 -0.59766,0.59765 -0.36328,-1.25781 -0.60156,-3.30078 -0.60156,-4.14062 -1.5,-16.019531 -4.26172,-48.238281 -5.46094,-63.957031 -0.30078,-1.140625 -0.59765,-3.183594 -0.59765,-4.082031 -0.30079,-0.839844 -0.66016,-2.101563 -0.66016,-2.339844 -0.24219,-0.660156 -0.54297,-1.261719 -0.54297,-1.261719 -0.66016,-0.539062 -1.85937,-1.136718 -2.45703,-1.136718 -1.20313,-0.300782 -3.96094,-0.300782 -4.85938,0 -0.90234,0 -2.10156,0.597656 -2.40234,1.136718 -0.23828,0 -0.59766,0.601563 -0.59766,1.261719 -0.30078,0.238281 -0.60156,1.140625 -0.60156,1.738281 -0.30078,1.5 -0.60156,5.042969 -0.60156,7.082032 -0.29688,2.640625 -0.66016,8.578125 -0.66016,11.820312 -0.23828,3 -0.53906,9.179688 -0.53906,12.480469 -0.35937,2.878906 -0.66016,8.519531 -0.66016,11.820312 -0.23828,2.9375 -0.53906,9.179688 -0.53906,12.359375 -0.35937,3 -0.66015,8.640625 -0.66015,11.820305 -0.23829,1.25782 0,4.5 0,5.9375 -0.23829,0 -0.60157,0.36329 -0.60157,0.60157 -0.29687,-2.03907 -0.53906,-5.94141 -0.53906,-7.67969 -0.35937,-3.53906 -0.66016,-10.679685 -0.66016,-14.218747 -0.30078,-3.78125 -0.59765,-11.222656 -0.59765,-14.761719 -0.30078,-3.839844 -0.60156,-10.921875 -0.60156,-14.21875 -0.30079,-2.640625 -0.30079,-7.679687 -0.60157,-10.019531 -0.29687,-0.902344 -0.95703,-2.042969 -1.19922,-2.402344 -0.30078,-0.300781 -0.96093,-0.539062 -1.19921,-0.539062 -1.85938,-0.359375 -5.76172,-0.359375 -7.32032,0 -0.53906,0 -1.5,0.539062 -1.73828,1.140625 -0.36328,0.359375 -0.66015,1.199218 -0.66015,1.800781 -0.30079,0.296875 -0.60157,1.5 -0.60157,2.339844 -0.30078,0.898437 -0.60156,3 -0.60156,4.136718 -0.59766,2.703125 -0.89844,8.882813 -1.19922,11.882813 -0.35937,1.140625 -0.59765,3.777344 -0.59765,5.277344 -0.66016,4.140625 -1.5625,13.320312 -1.86329,17.761718 -0.23828,1.140625 -0.59765,3.839844 -0.59765,5.28125 -0.60156,2.63672 -1.19922,8.57812 -1.19922,11.82031 -0.30078,0.35937 0,1.79687 0,2.39844 -0.30078,0 -0.60156,0.30078 -0.60156,0.60156 -0.30078,-1.20313 -0.60156,-3.24219 -0.60156,-4.14063 -0.65625,-3.83984 -1.19922,-11.519526 -1.19922,-15.359367 -0.35938,-2.101563 -0.66016,-6.542969 -0.66016,-8.28125 -0.23828,-4.140625 -0.89844,-11.820313 -1.14062,-15.359375 -0.29688,-1.5 -0.65625,-4.199219 -0.65625,-5.339844 -0.30079,-0.902344 -0.54297,-2.101562 -0.54297,-2.339844 -0.35938,-0.660156 -0.66016,-1.5 -0.66016,-1.800781 -0.59766,-0.601562 -1.5,-1.742187 -1.79687,-1.742187 -0.96094,-0.359375 -3.0625,-0.359375 -3.60157,0 -1.26172,0 -3.35937,0.242187 -4.32031,0.542968 -0.89844,0 -2.10156,0.597657 -2.33984,1.199219 -0.35938,0.300781 -0.66016,1.140625 -0.66016,1.800781 -0.30078,0.238282 -0.53906,1.4375 -0.53906,2.339844 -0.35938,8.578125 -0.35938,25.980469 0,34.917966 0,8.51953 0.23828,25.67969 0.53906,34.26172 -0.30078,0 -0.53906,0.30078 -0.53906,0.59765 -0.35938,-0.59765 -0.66016,-1.5 -0.66016,-1.73828 -0.60156,-1.5 -0.90234,-4.80078 -1.19922,-5.9414 -0.36328,-0.89844 -0.60156,-1.80078 -0.60156,-2.39844 -0.96094,-2.94141 -1.85937,-9.17969 -2.39844,-11.82031 -0.36328,-0.89844 -0.66015,-1.73828 -0.66015,-2.39844 -0.90235,-2.88281 -1.80078,-9.18359 -2.402345,-11.82031 -0.300782,-0.839846 -0.597657,-1.742187 -0.597657,-2.28125 -0.300781,-0.898437 -0.660156,-2.398437 -0.660156,-3 -0.242187,-0.898437 -0.542969,-2.039062 -0.542969,-2.398437 -0.359375,-0.542969 -0.597656,-1.140625 -0.597656,-1.140625 -0.660156,-0.601563 -1.859375,-1.140625 -2.402344,-1.140625 -2.757812,-0.359375 -7.917968,-0.660156 -10.316406,0 -0.601562,0 -1.5,2.039062 -1.863281,2.878906 -0.296875,0.300781 -0.539063,1.5 -0.539063,2.402344 -0.359375,5.578117 -0.660156,17.160157 -0.660156,23.039057 -0.300781,10.67969 -0.539062,32.51953 -0.539062,43.80078 -0.359375,5.27735 0,16.25781 0,21.83985 -0.359375,0 -0.660157,0.35937 -0.660157,0.59765 -0.300781,-0.23828 -0.601562,-0.89844 -0.601562,-1.14062 -0.296875,-0.59766 -0.597656,-2.09766 -0.597656,-2.39844 -0.359375,-1.14063 -1.261719,-2.64063 -1.261719,-3.53906 -0.238281,-0.60157 -0.539063,-2.10157 -0.539063,-2.33985 -0.300781,-1.19922 -1.199218,-2.69922 -1.199218,-3.54297 -0.359375,-0.65625 -0.660157,-2.09765 -0.660157,-2.39843 -0.242187,-1.14063 -1.199218,-2.64063 -1.199218,-3.53907 -2.703125,-9.48046 -7.5625,-28.4414 -9.660157,-37.85937 -0.300781,-0.90234 -0.660156,-2.94141 -0.660156,-3.54297 -0.242187,-1.79687 -1.203125,-4.4375 -1.203125,-5.9375 -0.238281,-0.90234 -0.597656,-3 -0.597656,-3.53906 -0.300781,-1.74219 -1.199219,-4.38281 -1.199219,-5.88281 -0.300781,-0.89844 -0.601562,-3 -0.601562,-3.53907 -0.300782,-1.80078 -1.257813,-4.5 -1.257813,-5.9414 C 58.54731,99.240234 58.246528,97.501953 58.246528,96.541015 57.887153,92.099609 57.648872,83.279297 57.648872,78.841797 57.348091,72.361328 57.04731,58.978515 57.04731,52.798828 c -0.359375,-0.597656 -0.601563,-1.5 -0.601563,-1.738281 -0.65625,-0.601563 -1.558594,-1.800782 -1.859375,-1.800782 -0.898437,-0.597656 -2.699219,-0.597656 -3.660156,-0.597656 -3.898438,-0.601562 -11.457031,-1.140625 -15.117188,-1.140625 -0.242187,-0.359375 -1.203125,0.238281 -1.203125,0.539063 -0.898437,0.359375 -2.097656,1.199218 -2.398437,1.800781 -0.300781,0 -0.601563,0.597656 -0.601563,1.199219 -0.359375,0.238281 -0.597656,1.140625 -0.597656,1.738281 -0.300781,0.300781 -0.601562,1.800781 -0.601562,2.402344 -0.359375,0.300781 -0.597657,1.140625 -0.597657,1.738281 -0.300781,0.902344 -0.660156,2.941406 -0.660156,4.199219 -0.902344,6.179687 -2.101562,19.140625 -2.402344,25.980468 -0.300781,3.242188 -0.597656,10.019532 -0.597656,13.5625 -0.300781,4.79687 -0.601562,14.82031 -0.601562,20.16015 -0.300782,3.83985 -0.300782,12.41797 0,16.5586 0,6.48046 0.601562,19.5 1.199218,25.98046 0,2.09766 0.300782,6.23829 0.601563,8.28125 0,0.65625 0.300781,1.5 0.597656,2.39844 0,0.60156 0.300781,2.03906 0.660156,2.94141 0,0.59765 0.242188,1.5 0.542969,2.39844 0,0.60156 0.359375,2.10156 0.660156,2.9414 0,0.53906 0.238282,1.4375 0.597657,2.33985 0,0.59765 0.300781,2.09765 0.601562,3 0,0.59765 0.238281,1.5 0.597656,2.33984 0,0.59766 0.300782,2.03906 0.601563,2.9375 0,0.60156 0.300781,1.80078 0.601562,2.40234 0,0.23828 0.296875,1.14063 0.597657,1.73828 -0.300782,0 -0.597657,0.30079 -0.597657,0.60157 -0.300781,-0.60157 -1.203125,-1.44141 -1.203125,-1.74219 -0.898437,-1.19922 -1.796875,-3.89844 -2.457031,-4.73828 -0.300781,-0.60156 -1.203125,-1.5 -1.203125,-1.80078 -0.898437,-1.5 -2.398437,-4.73828 -3,-5.87891 -0.296875,-0.66016 -1.199219,-1.5 -1.199219,-1.80078 -0.898437,-1.5 -2.457031,-4.44141 -3.058593,-5.87891 -0.898438,-2.40234 -2.398438,-6.83984 -3,-8.9414 -0.359375,-0.53907 -0.601563,-0.89844 -0.601563,-1.14063 -0.957031,-2.39844 -2.398437,-6.83984 -3.058594,-8.8789 -0.601562,-1.73829 -1.5,-5.33985 -1.800781,-7.08204 -0.300781,-1.19921 -0.660156,-3.29687 -0.660156,-4.19921 -0.238281,-0.83985 -0.839844,-2.03907 -1.199219,-2.27735 -0.238281,-0.36328 -0.8984373,-0.60156 -1.1992193,-0.60156 -1.800781,-0.30078 -5.101562,-0.30078 -6.660156,0 -0.539062,0 -1.80078103,0.60156 -1.80078103,1.14062 -0.601563,0.59766 -0.601563,2.09766 -0.601563,3 -0.238281,0.83985 0,2.9375 0,4.14063"
       id="path9" /><path
       fill-rule="evenodd"
       fill="#ffffff"
       fill-opacity="1"
       stroke-width="0.12"
       stroke-linecap="butt"
       stroke-linejoin="miter"
       stroke="#000000"
       stroke-opacity="1"
       stroke-miterlimit="10"
       d="m 76.426216,104.27929 c 0,0 42.421874,0 42.421874,0 0,0 0,42.42188 0,42.42188 0,0 -42.421874,0 -42.421874,0 0,0 0,-42.42188 0,-42.42188"
       id="path11" /><path
       fill-rule="evenodd"
       fill="#ffffff"
       fill-opacity="1"
       stroke-width="0.12"
       stroke-linecap="butt"
       stroke-linejoin="miter"
       stroke="#000000"
       stroke-opacity="1"
       stroke-miterlimit="10"
       d="m 124.6059,104.27929 c 0,0 42.42188,0 42.42188,0 0,0 0,42.42188 0,42.42188 0,0 -42.42188,0 -42.42188,0 0,0 0,-42.42188 0,-42.42188"
       id="path13" /><path
       fill-rule="evenodd"
       fill="#ffffff"
       fill-opacity="1"
       stroke-width="0.12"
       stroke-linecap="butt"
       stroke-linejoin="miter"
       stroke="#000000"
       stroke-opacity="1"
       stroke-miterlimit="10"
       d="m 172.7895,104.27929 c 0,0 42.41796,0 42.41796,0 0,0 0,42.42188 0,42.42188 0,0 -42.41796,0 -42.41796,0 0,0 0,-42.42188 0,-42.42188"
       id="path15" /><path
       fill-rule="evenodd"
       fill="#ffffff"
       fill-opacity="1"
       stroke-width="0.12"
       stroke-linecap="butt"
       stroke-linejoin="miter"
       stroke="#000000"
       stroke-opacity="1"
       stroke-miterlimit="10"
       d="m 220.96918,104.27929 c 0,0 42.41797,0 42.41797,0 0,0 0,42.42188 0,42.42188 0,0 -42.41797,0 -42.41797,0 0,0 0,-42.42188 0,-42.42188"
       id="path17" /><path
       fill-rule="evenodd"
       fill="#ffffff"
       fill-opacity="1"
       stroke-width="0.12"
       stroke-linecap="butt"
       stroke-linejoin="miter"
       stroke="#000000"
       stroke-opacity="1"
       stroke-miterlimit="10"
       d="m 269.14887,104.27929 c 0,0 42.41797,0 42.41797,0 0,0 0,42.42188 0,42.42188 0,0 -42.41797,0 -42.41797,0 0,0 0,-42.42188 0,-42.42188"
       id="path19" /><path
       fill-rule="evenodd"
       fill="#ffffff"
       fill-opacity="1"
       stroke-width="0.12"
       stroke-linecap="butt"
       stroke-linejoin="miter"
       stroke="#000000"
       stroke-opacity="1"
       stroke-miterlimit="10"
       d="m 317.32856,104.27929 c 0,0 42.41797,0 42.41797,0 0,0 0,42.42188 0,42.42188 0,0 -42.41797,0 -42.41797,0 0,0 0,-42.42188 0,-42.42188"
       id="path21" /><path
       fill-rule="evenodd"
       fill="#ffffff"
       fill-opacity="1"
       stroke-width="0.12"
       stroke-linecap="butt"
       stroke-linejoin="miter"
       stroke="#000000"
       stroke-opacity="1"
       stroke-miterlimit="10"
       d="m 76.426216,152.45898 c 0,0 42.421874,0 42.421874,0 0,0 0,42.42188 0,42.42188 0,0 -42.421874,0 -42.421874,0 0,0 0,-42.42188 0,-42.42188"
       id="path23" /><path
       fill-rule="evenodd"
       fill="#ffffff"
       fill-opacity="1"
       stroke-width="0.12"
       stroke-linecap="butt"
       stroke-linejoin="miter"
       stroke="#000000"
       stroke-opacity="1"
       stroke-miterlimit="10"
       d="m 124.6059,152.45898 c 0,0 42.42188,0 42.42188,0 0,0 0,42.42188 0,42.42188 0,0 -42.42188,0 -42.42188,0 0,0 0,-42.42188 0,-42.42188"
       id="path25" /><path
       fill-rule="evenodd"
       fill="#ffffff"
       fill-opacity="1"
       stroke-width="0.12"
       stroke-linecap="butt"
       stroke-linejoin="miter"
       stroke="#000000"
       stroke-opacity="1"
       stroke-miterlimit="10"
       d="m 172.7895,152.45898 c 0,0 42.41796,0 42.41796,0 0,0 0,42.42188 0,42.42188 0,0 -42.41796,0 -42.41796,0 0,0 0,-42.42188 0,-42.42188"
       id="path27" /><path
       fill-rule="evenodd"
       fill="#ffffff"
       fill-opacity="1"
       stroke-width="0.12"
       stroke-linecap="butt"
       stroke-linejoin="miter"
       stroke="#000000"
       stroke-opacity="1"
       stroke-miterlimit="10"
       d="m 220.96918,152.45898 c 0,0 42.41797,0 42.41797,0 0,0 0,42.42188 0,42.42188 0,0 -42.41797,0 -42.41797,0 0,0 0,-42.42188 0,-42.42188"
       id="path29" /><path
       fill-rule="evenodd"
       fill="#ffffff"
       fill-opacity="1"
       stroke-width="0.12"
       stroke-linecap="butt"
       stroke-linejoin="miter"
       stroke="#000000"
       stroke-opacity="1"
       stroke-miterlimit="10"
       d="m 269.14887,152.45898 c 0,0 42.41797,0 42.41797,0 0,0 0,42.42188 0,42.42188 0,0 -42.41797,0 -42.41797,0 0,0 0,-42.42188 0,-42.42188"
       id="path31" /><path
       fill-rule="evenodd"
       fill="#ffffff"
       fill-opacity="1"
       stroke-width="0.12"
       stroke-linecap="butt"
       stroke-linejoin="miter"
       stroke="#000000"
       stroke-opacity="1"
       stroke-miterlimit="10"
       d="m 317.32856,152.45898 c 0,0 42.41797,0 42.41797,0 0,0 0,42.42188 0,42.42188 0,0 -42.41797,0 -42.41797,0 0,0 0,-42.42188 0,-42.42188"
       id="path33" /><path
       fill-rule="evenodd"
       fill="#000000"
       fill-opacity="1"
       d="m 100.36762,128.2207 c -4.621092,-11.58203 -4.621092,-11.58203 -4.621092,-11.58203 -4.679687,11.58203 -4.679687,11.58203 -4.679687,11.58203 9.300779,0 9.300779,0 9.300779,0 m 10.73828,9.71875 c 0,0.72265 0,0.72265 0,0.72265 -10.61719,0 -10.61719,0 -10.61719,0 0,-0.72265 0,-0.72265 0,-0.72265 0.0586,0 2.51954,-0.1211 2.87891,-0.59766 0.48047,-0.72265 0.12109,-1.5625 -0.17969,-2.33984 -1.98047,-5.04297 -1.98047,-5.04297 -1.98047,-5.04297 -10.980463,0 -10.980463,0 -10.980463,0 -1.4375,3.0625 -1.4375,3.0625 -1.4375,3.0625 -0.902344,1.85937 -1.382812,3.59766 -1.023437,4.25781 0.542968,0.90235 2.882812,0.66016 2.882812,0.66016 0,0.72265 0,0.72265 0,0.72265 -8.042969,0 -8.042969,0 -8.042969,0 0,-0.72265 0,-0.72265 0,-0.72265 0.722657,-0.0586 1.320313,-0.23828 1.921875,-0.71875 0.960938,-0.71875 1.738282,-2.28125 2.398438,-3.83985 9.480469,-22.3789 9.480469,-22.3789 9.480469,-22.3789 1.679687,0 1.679687,0 1.679687,0 9.300778,23.45703 9.300778,23.45703 9.300778,23.45703 0,0 0.90235,2.76172 2.33985,3.24219 0.48046,0.17968 1.32031,0.23828 1.3789,0.23828"
       id="path35" /><path
       fill-rule="evenodd"
       fill="#000000"
       fill-opacity="1"
       d="m 200.62934,113.88086 c -0.96094,-0.66016 -2.46094,-0.66016 -3.1211,-0.66016 -8.46093,0 -8.46093,0 -8.46093,0 0,10.44141 0,10.44141 0,10.44141 5.8789,0 5.8789,0 5.8789,0 1.6211,0 3,0 4.01953,-1.20313 0.66016,-0.83984 1.02344,-1.55859 1.02344,-2.64062 0.83985,0 0.83985,0 0.83985,0 0,9.54296 0,9.54296 0,9.54296 -0.83985,0 -0.83985,0 -0.83985,0 0,-1.14062 -0.17969,-2.10156 -1.02344,-2.82031 -1.19921,-0.96094 -2.39843,-1.19922 -4.01953,-1.19922 -5.8789,0 -5.8789,0 -5.8789,0 0,11.63672 0,11.63672 0,11.63672 7.32031,0 7.32031,0 7.32031,0 2.33984,0 4.01953,-0.35937 5.69922,-1.97656 1.01953,-0.96094 1.62109,-1.98047 1.98047,-3.36328 1.26172,0 1.26172,0 1.26172,0 -1.98047,7.02343 -1.98047,7.02343 -1.98047,7.02343 -22.14063,0 -22.14063,0 -22.14063,0 0,-0.72265 0,-0.72265 0,-0.72265 0,0 1.98047,0.12109 2.75781,-0.96094 0.36329,-0.53906 0.60157,-1.01953 0.60157,-1.67969 0,-20.39843 0,-20.39843 0,-20.39843 0,-0.66016 -0.23828,-1.14063 -0.60157,-1.67969 -0.77734,-1.01953 -2.75781,-0.96094 -2.75781,-0.96094 0,-0.71875 0,-0.71875 0,-0.71875 21.71875,0 21.71875,0 21.71875,0 0,5.9375 0,5.9375 0,5.9375 -0.71875,0 -0.71875,0 -0.71875,0 0.0586,-0.83984 -0.35937,-2.69922 -1.55859,-3.59765"
       id="path37" /><path
       fill-rule="evenodd"
       fill="#000000"
       fill-opacity="1"
       d="m 139.96918,128.75976 c 10.13672,0 10.13672,0 10.13672,0 0,2.51953 0,2.51953 0,2.51953 -10.13672,0 -10.13672,0 -10.13672,0 0,-2.51953 0,-2.51953 0,-2.51953"
       id="path39" /><path
       fill-rule="evenodd"
       fill="#000000"
       fill-opacity="1"
       d="m 236.92621,136.91992 c 1.44141,0 2.88282,1.01953 4.80078,1.01953 3.96094,0 5.87891,-1.37891 5.87891,-5.46094 0,-6.35937 -9.53906,-6 -9.53906,-10.19922 0,-1.55859 1.5625,-2.64062 3.12109,-2.64062 4.01953,0 4.73828,4.86328 4.6211,5.16015 0.59765,0 0.59765,0 0.59765,0 0,-5.63671 0,-5.63671 0,-5.63671 -0.59765,0 -0.59765,0 -0.59765,0 0,0 0.0586,0.59765 -0.72266,0.59765 -1.67969,0 -1.79688,-1.01953 -3.89844,-1.01953 -2.8789,-0.0586 -5.51953,2.10156 -5.51953,4.98047 -0.0625,6.12109 9.17969,5.75781 9.17969,10.4414 0,1.91797 -1.67969,2.9375 -3.35938,2.87891 -5.16015,-0.12109 -5.40234,-5.69922 -5.40234,-5.69922 -0.53906,0 -0.53906,0 -0.53906,0 0,6.17969 0,6.17969 0,6.17969 0.53906,0 0.53906,0 0.53906,0 0,0 0.12109,-0.60156 0.83984,-0.60156"
       id="path41" /><path
       fill-rule="evenodd"
       fill="#000000"
       fill-opacity="1"
       d="m 292.36762,123.66211 c 1.14062,-0.96094 1.98047,-1.6211 3.35937,-2.16016 1.01954,-0.42188 3.0625,-0.48047 3.0625,-0.48047 0,-0.72266 0,-0.72266 0,-0.72266 -8.46093,0 -8.46093,0 -8.46093,0 0,0.72266 0,0.72266 0,0.72266 0,0 1.80078,-0.0625 1.91797,0.23828 0.17968,0.48047 -0.59766,1.37891 -1.19922,1.92188 -5.46094,4.73828 -5.46094,4.73828 -5.46094,4.73828 0,-16.91797 0,-16.91797 0,-16.91797 -6.48047,1.67969 -6.48047,1.67969 -6.48047,1.67969 0,0.83984 0,0.83984 0,0.83984 0,-0.0625 2.46094,-0.30078 2.88281,0.11719 0.23828,0.30078 0.23828,1.02344 0.23828,1.62109 0,20.16016 0,20.16016 0,20.16016 0,0.71875 0,1.32031 -0.48046,1.80078 -0.53907,0.53906 -2.64063,0.71875 -2.64063,0.71875 0,0.72265 0,0.72265 0,0.72265 9.54297,0 9.54297,0 9.54297,0 0,-0.72265 0,-0.72265 0,-0.72265 0,0 -2.10156,0 -2.70313,-0.71875 -0.35937,-0.53906 -0.35937,-1.08203 -0.35937,-1.80078 0,-6.78125 0,-6.78125 0,-6.78125 6,7.74218 6,7.74218 6,7.74218 0.30078,0.35938 0.83984,0.96094 0.54297,1.32032 -0.1836,0.30078 -1.5,0.23828 -1.5,0.23828 0,0.72265 0,0.72265 0,0.72265 8.9375,0 8.9375,0 8.9375,0 0,-0.72265 0,-0.72265 0,-0.72265 -0.0586,0 -0.77735,0 -1.67969,-0.23828 -1.44141,-0.35938 -2.09766,-1.44141 -3,-2.58203 -6.35937,-7.91797 -6.35937,-7.91797 -6.35937,-7.91797 3.83984,-3.53906 3.83984,-3.53906 3.83984,-3.53906"
       id="path43" /><path
       fill-rule="evenodd"
       fill="#000000"
       fill-opacity="1"
       d="m 338.98871,126.77929 c 4.67969,11.16016 4.67969,11.16016 4.67969,11.16016 0.23828,0 0.23828,0 0.23828,0 6.72266,-15.89844 6.72266,-15.89844 6.72266,-15.89844 0,-0.0625 0.66015,-1.4414 1.19922,-1.98047 0.0586,-0.0586 0.41797,-0.17968 0.48047,-0.17968 0,-0.71875 0,-0.71875 0,-0.71875 -5.10157,0 -5.10157,0 -5.10157,0 0,0.71875 0,0.71875 0,0.71875 0,0 1.19922,-0.17969 1.5586,0.23828 0.42187,0.54297 -0.0586,1.92187 -0.41797,3 -3.60156,9.24218 -3.60156,9.24218 -3.60156,9.24218 -4.07813,-10.08203 -4.07813,-10.08203 -4.07813,-10.08203 -0.24219,-0.71875 -0.48047,-1.5 0,-2.16015 0.30078,-0.35938 1.85938,-0.23828 1.85938,-0.23828 0,-0.71875 0,-0.71875 0,-0.71875 -7.98047,0 -7.98047,0 -7.98047,0 0,0.71875 0,0.71875 0,0.71875 0,0 0.96093,-0.0625 1.32031,0.12109 0.48047,0.29687 1.14062,1.37891 1.44141,2.27734 0.83984,2.28125 0.83984,2.28125 0.83984,2.28125 -3.60156,7.91797 -3.60156,7.91797 -3.60156,7.91797 -3.83985,-9.11719 -3.83985,-9.11719 -3.83985,-9.11719 -0.48047,-1.14062 -1.07812,-2.88281 -0.35937,-3.35937 0.17969,-0.0625 1.62109,-0.12109 1.62109,-0.12109 0,-0.71875 0,-0.71875 0,-0.71875 -7.32031,0 -7.32031,0 -7.32031,0 0,0.71875 0,0.71875 0,0.71875 0,0 0.71875,0 1.07812,0.12109 0.24219,0.11719 0.78125,1.25781 1.01954,2.03906 6.48046,15.89844 6.48046,15.89844 6.48046,15.89844 0.30079,0 0.30079,0 0.30079,0 5.46093,-11.16016 5.46093,-11.16016 5.46093,-11.16016"
       id="path45" /><path
       fill-rule="evenodd"
       fill="#000000"
       fill-opacity="1"
       d="m 88.605903,180.54101 c 0,-2.94141 2.222657,-4.62109 4.800782,-5.94141 1.980468,-1.01953 4.921875,-2.03906 5.339843,-2.09765 0,0 0.480469,-6 -2.820312,-5.88281 -2.21875,0.0625 -2.9375,0.72265 -2.820313,2.04296 0,1.07813 -0.117187,3.41797 -1.796875,3.41797 -1.441406,0 -2.042968,-0.89843 -2.042968,-1.98047 0,-2.57812 2.523437,-4.3789 7.203125,-4.3789 4.499995,0 5.636715,1.73828 5.636715,5.21875 0,10.19922 0,10.19922 0,10.19922 0,0.96093 0.36328,1.5625 1.14063,1.5625 0.83984,0 1.98047,-0.96094 1.98047,-0.96094 0,1.07812 0,1.07812 0,1.07812 -0.17969,0.66016 -1.80079,2.10157 -3.35938,2.10157 -1.55859,0 -2.878904,-1.6211 -2.878904,-3.17969 0,0.0586 -2.519531,3.17969 -4.621094,3.17969 -3.121094,0 -5.761719,-1.67969 -5.761719,-4.37891 m 3.660157,-1.67969 c 0,2.27735 1.5,3.71875 2.941406,3.71875 2.28125,0 3.539062,-1.67968 3.539062,-1.73828 0,-7.08203 0,-7.08203 0,-7.08203 -0.359375,-0.12109 -6.480468,1.32031 -6.480468,5.10156"
       id="path47" /><path
       fill-rule="evenodd"
       fill="#000000"
       fill-opacity="1"
       d="m 150.04731,172.25976 c 0,7.5 0,7.5 0,7.5 -0.60157,1.80078 -1.85938,3 -3.71875,3.35938 -3.83985,0.78125 -5.58203,-4.5586 -5.51953,-8.45704 0,-3.54296 1.79687,-7.38281 5.03906,-7.62109 2.51953,-0.12109 4.19922,3.48047 4.19922,5.21875 m 6.30078,10.62109 c 0,-0.60156 0,-0.60156 0,-0.60156 0,0 -1.85938,0.42188 -2.33985,-0.23828 -0.35937,-0.48047 -0.53906,-1.08203 -0.53906,-1.67969 0,-23.46093 0,-23.46093 0,-23.46093 -6.17969,1.67968 -6.17969,1.67968 -6.17969,1.67968 0,0.83985 0,0.83985 0,0.83985 0,-0.0586 2.15625,-0.48047 2.57813,-0.0586 0.30078,0.35938 0.17969,0.95703 0.17969,1.5586 0,6.48047 0,6.48047 0,6.48047 0,0 -1.32032,-1.6211 -4.19922,-1.6211 -5.51953,0 -8.69922,4.6211 -8.69922,10.32031 0,4.5 3.05859,9.17969 7.61719,8.87891 2.28125,-0.11719 3.90234,-1.01953 5.28125,-2.81641 0,2.81641 0,2.81641 0,2.81641 6.30078,-2.09766 6.30078,-2.09766 6.30078,-2.09766"
       id="path49" /><path
       fill-rule="evenodd"
       fill="#000000"
       fill-opacity="1"
       d="m 195.94574,169.31835 c 1.08204,0 1.08204,1.32032 2.58204,1.32032 1.01953,0 1.80078,-0.47657 1.80078,-1.67969 0,-1.14063 -1.01953,-2.16016 -2.22266,-2.16016 -2.51953,0 -4.79687,3.60157 -4.79687,3.60157 0,-3.60157 0,-3.60157 0,-3.60157 -6.48047,1.67969 -6.48047,1.67969 -6.48047,1.67969 0,0.83984 0,0.83984 0,0.83984 0,-0.11718 2.46093,-0.47656 2.75781,0 0.17969,0.36329 0.24219,1.08204 0.24219,1.6836 0,11.39844 0,11.39844 0,11.39844 0,0.71875 0,1.32031 -0.48047,1.80078 -0.53906,0.53906 -2.64063,0.71875 -2.64063,0.71875 0,0.71875 0,0.71875 0,0.71875 9.71875,0 9.71875,0 9.71875,0 0,-0.71875 0,-0.71875 0,-0.71875 0,0 -2.16015,0 -2.75781,-0.71875 -0.35937,-0.53907 -0.35937,-1.08203 -0.35937,-1.80078 0,-10.08204 0,-10.08204 0,-10.08204 0,-1.4375 1.91796,-3 2.63671,-3"
       id="path51" /><path
       fill-rule="evenodd"
       fill="#000000"
       fill-opacity="1"
       d="m 233.68793,180.5996 c 0,-2.9375 2.16016,-4.62109 4.80078,-5.9375 1.98047,-1.02343 4.91797,-2.04296 5.27735,-2.10156 0.0625,0 0.54297,-6 -2.75782,-5.8789 -2.21875,0.0586 -2.9414,0.71875 -2.8789,2.03906 0.0586,1.07812 -0.1211,3.41797 -1.80078,3.41797 -1.44141,0 -1.98047,-0.89844 -1.98047,-1.97657 0,-2.58203 2.51953,-4.38281 7.14062,-4.38281 4.5586,0 5.69922,1.74219 5.69922,5.22266 0,10.19922 0,10.19922 0,10.19922 0,0.96093 0.30078,1.55859 1.14063,1.55859 0.83984,0 1.98047,-0.96094 1.98047,-0.96094 0,1.08203 0,1.08203 0,1.08203 -0.17969,0.66016 -1.86329,2.09766 -3.36329,2.09766 -1.61718,0 -2.8789,-1.61719 -2.8789,-3.17969 0,0.0625 -2.51953,3.17969 -4.6211,3.17969 -3.11718,0 -5.75781,-1.67969 -5.75781,-4.37891 m 3.60156,-1.67968 c 0,2.28125 1.5586,3.71875 3,3.71875 2.27735,0 3.47657,-1.67969 3.47657,-1.73828 0,-7.08204 0,-7.08204 0,-7.08204 -0.29688,-0.11718 -6.41797,1.32032 -6.47657,5.10157"
       id="path53" /><path
       fill-rule="evenodd"
       fill="#000000"
       fill-opacity="1"
       d="m 282.82856,180.54101 c 0,-2.94141 2.21875,-4.62109 4.80078,-5.94141 2.03906,-1.01953 4.91797,-2.03906 5.33984,-2.09765 0.0586,0 0.53906,-6 -2.82031,-5.88281 -2.16016,0.0625 -2.88281,0.72265 -2.82031,2.04296 0.0586,1.07813 -0.1211,3.41797 -1.80078,3.41797 -1.44141,0 -1.98047,-0.89843 -1.98047,-1.98047 0,-2.57812 2.51953,-4.3789 7.14062,-4.3789 4.5,0 5.69922,1.73828 5.69922,5.21875 0,10.19922 0,10.19922 0,10.19922 0,0.96093 0.30078,1.5625 1.08203,1.5625 0.83985,0 2.03906,-0.96094 2.03906,-0.96094 0,1.07812 0,1.07812 0,1.07812 -0.24218,0.66016 -1.85937,2.10157 -3.35937,2.10157 -1.62109,0 -2.88281,-1.6211 -2.88281,-3.17969 0,0.0586 -2.51953,3.17969 -4.67969,3.17969 -3.11719,0 -5.75781,-1.67969 -5.75781,-4.37891 m 3.66015,-1.67969 c 0,2.27735 1.5,3.71875 2.9375,3.71875 2.28125,0 3.54297,-1.67968 3.54297,-1.73828 0,-7.08203 0,-7.08203 0,-7.08203 -0.30078,-0.12109 -6.42187,1.32031 -6.48047,5.10156"
       id="path55" /><path
       fill-rule="evenodd"
       fill="#000000"
       fill-opacity="1"
       d="m 338.98871,184.97851 c 2.87891,0.12109 4.80078,-1.37891 5.21875,-3.17969 -0.41797,-0.35937 -0.41797,-0.35937 -0.41797,-0.35937 -0.48046,1.01953 -1.5625,1.3789 -2.76171,1.4414 -1.44141,0 -1.67969,-2.33984 -1.67969,-3.96093 0,-11.28125 0,-11.28125 0,-11.28125 3.96094,0 3.96094,0 3.96094,0 0,-1.4375 0,-1.4375 0,-1.4375 -3.96094,0 -3.96094,0 -3.96094,0 0,-4.92188 0,-4.92188 0,-4.92188 -2.33985,2.64063 -2.33985,2.64063 -2.33985,2.64063 0,0 -1.14062,1.14062 -1.85937,1.80078 -0.54297,0.48047 -2.28125,1.19922 -1.85938,1.73828 0.0586,0.12109 0.47657,0.17969 0.77735,0.17969 1.67969,0 1.67969,0 1.67969,0 0,12.72265 0,12.72265 0,12.72265 0,2.16016 1.19921,4.5586 3.24218,4.61719"
       id="path57" /><text
       xml:space="preserve"
       transform="matrix(0.75,0,0,0.75,73.742645,19.240234)"
       id="text221"
       style="font-size:53.3333px;line-height:0.8;white-space:pre;shape-inside:url(#rect223);fill:#f2f2f2"
       x="132.95566"
       y="0"><tspan
         x="10.692383"
         y="343.15125"
         id="tspan4770"><tspan
           style="font-weight:bold;font-size:64px"
           id="tspan4766">Vincent</tspan><tspan
           style="text-align:center;text-anchor:middle"
           id="tspan4768">
</tspan></tspan><tspan
         x="52.245848"
         y="387.01972"
         id="tspan4774"><tspan
           style="font-size:37.3333px"
           id="tspan4772">Secretaris</tspan></tspan></text></g></svg>
